<mxfile host="app.diagrams.net" modified="2023-10-15T13:31:49.726Z" agent="Mozilla/5.0 (Macintosh; Intel Mac OS X 10_15_7) AppleWebKit/537.36 (KHTML, like Gecko) Chrome/118.0.0.0 Safari/537.36" etag="u1AHUKc8ylNQ7LpiFzQ5" version="22.0.4" type="device">
  <diagram name="Page-1" id="q0aN9C3ZCvXhXREPQR7S">
    <mxGraphModel dx="407" dy="284" grid="1" gridSize="10" guides="1" tooltips="1" connect="1" arrows="1" fold="1" page="1" pageScale="1" pageWidth="827" pageHeight="1169" math="0" shadow="0">
      <root>
        <mxCell id="0" />
        <mxCell id="1" parent="0" />
        <mxCell id="X623mI5D7pwIxlIXd98o-2" value="BANK EMPLOYEE" style="shape=umlActor;verticalLabelPosition=bottom;verticalAlign=top;html=1;outlineConnect=0;" vertex="1" parent="1">
          <mxGeometry x="120" y="370" width="30" height="60" as="geometry" />
        </mxCell>
        <mxCell id="X623mI5D7pwIxlIXd98o-6" value="SEARCH CUSTOMER" style="ellipse;whiteSpace=wrap;html=1;" vertex="1" parent="1">
          <mxGeometry x="605" y="190" width="140" height="60" as="geometry" />
        </mxCell>
        <mxCell id="X623mI5D7pwIxlIXd98o-7" value="VIEW / MODIFY CUSTOMER KYC" style="ellipse;whiteSpace=wrap;html=1;" vertex="1" parent="1">
          <mxGeometry x="600" y="430" width="140" height="60" as="geometry" />
        </mxCell>
        <mxCell id="X623mI5D7pwIxlIXd98o-8" value="VIEW BALANCES" style="ellipse;whiteSpace=wrap;html=1;" vertex="1" parent="1">
          <mxGeometry x="600" y="350" width="130" height="60" as="geometry" />
        </mxCell>
        <mxCell id="X623mI5D7pwIxlIXd98o-9" value="VIEW ACCOUNTS OF A CUSTOMER" style="ellipse;whiteSpace=wrap;html=1;" vertex="1" parent="1">
          <mxGeometry x="605" y="270" width="130" height="60" as="geometry" />
        </mxCell>
        <mxCell id="X623mI5D7pwIxlIXd98o-13" value="" style="endArrow=classic;html=1;rounded=0;entryX=-0.026;entryY=0.354;entryDx=0;entryDy=0;entryPerimeter=0;" edge="1" parent="1" target="X623mI5D7pwIxlIXd98o-8">
          <mxGeometry width="50" height="50" relative="1" as="geometry">
            <mxPoint x="160" y="400" as="sourcePoint" />
            <mxPoint x="510" y="340" as="targetPoint" />
          </mxGeometry>
        </mxCell>
        <mxCell id="X623mI5D7pwIxlIXd98o-14" value="" style="endArrow=classic;html=1;rounded=0;entryX=-0.006;entryY=0.404;entryDx=0;entryDy=0;entryPerimeter=0;" edge="1" parent="1" target="X623mI5D7pwIxlIXd98o-7">
          <mxGeometry width="50" height="50" relative="1" as="geometry">
            <mxPoint x="160" y="400" as="sourcePoint" />
            <mxPoint x="510" y="340" as="targetPoint" />
          </mxGeometry>
        </mxCell>
        <mxCell id="X623mI5D7pwIxlIXd98o-18" value="VERIFY NOMINATION DETAILS" style="ellipse;whiteSpace=wrap;html=1;" vertex="1" parent="1">
          <mxGeometry x="600" y="590" width="160" height="60" as="geometry" />
        </mxCell>
        <mxCell id="X623mI5D7pwIxlIXd98o-19" value="ACCOUNT STATEMENT" style="ellipse;whiteSpace=wrap;html=1;" vertex="1" parent="1">
          <mxGeometry x="600" y="510" width="150" height="60" as="geometry" />
        </mxCell>
        <mxCell id="X623mI5D7pwIxlIXd98o-25" value="" style="endArrow=classic;html=1;rounded=0;entryX=0.008;entryY=0.64;entryDx=0;entryDy=0;entryPerimeter=0;" edge="1" parent="1" target="X623mI5D7pwIxlIXd98o-6">
          <mxGeometry width="50" height="50" relative="1" as="geometry">
            <mxPoint x="160" y="400" as="sourcePoint" />
            <mxPoint x="600" y="310" as="targetPoint" />
          </mxGeometry>
        </mxCell>
        <mxCell id="X623mI5D7pwIxlIXd98o-26" value="" style="endArrow=classic;html=1;rounded=0;entryX=0.022;entryY=0.682;entryDx=0;entryDy=0;entryPerimeter=0;" edge="1" parent="1" target="X623mI5D7pwIxlIXd98o-9">
          <mxGeometry width="50" height="50" relative="1" as="geometry">
            <mxPoint x="160" y="400" as="sourcePoint" />
            <mxPoint x="610" y="320" as="targetPoint" />
          </mxGeometry>
        </mxCell>
        <mxCell id="X623mI5D7pwIxlIXd98o-27" value="" style="endArrow=classic;html=1;rounded=0;entryX=-0.013;entryY=0.404;entryDx=0;entryDy=0;entryPerimeter=0;" edge="1" parent="1" target="X623mI5D7pwIxlIXd98o-19">
          <mxGeometry width="50" height="50" relative="1" as="geometry">
            <mxPoint x="160" y="400" as="sourcePoint" />
            <mxPoint x="620" y="330" as="targetPoint" />
          </mxGeometry>
        </mxCell>
        <mxCell id="X623mI5D7pwIxlIXd98o-29" value="" style="endArrow=classic;html=1;rounded=0;entryX=0;entryY=0.333;entryDx=0;entryDy=0;entryPerimeter=0;" edge="1" parent="1" target="X623mI5D7pwIxlIXd98o-18">
          <mxGeometry width="50" height="50" relative="1" as="geometry">
            <mxPoint x="160" y="400" as="sourcePoint" />
            <mxPoint x="470" y="620" as="targetPoint" />
          </mxGeometry>
        </mxCell>
        <mxCell id="X623mI5D7pwIxlIXd98o-32" value="" style="endArrow=classic;html=1;rounded=0;entryX=0;entryY=0.333;entryDx=0;entryDy=0;entryPerimeter=0;" edge="1" parent="1">
          <mxGeometry width="50" height="50" relative="1" as="geometry">
            <mxPoint x="160" y="400" as="sourcePoint" />
            <mxPoint x="600" y="610" as="targetPoint" />
          </mxGeometry>
        </mxCell>
      </root>
    </mxGraphModel>
  </diagram>
</mxfile>
